<?xml version="1.0" encoding="UTF-8" standalone="no"?>
<!-- Created with Inkscape (http://www.inkscape.org/) -->
<svg
   width="128mm"
   height="128mm"
   viewBox="0 0 128 128"
   version="1.1"
   xmlns="http://www.w3.org/2000/svg"
   xmlns:svg="http://www.w3.org/2000/svg">
  <g
     id="layer1"
     transform="translate(-40.653611,-31.596119)">
    <path
       id="path1"
       style="fill:#ffffff;stroke:#000000;stroke-width:0.7;stroke-linecap:square;paint-order:markers fill stroke;stroke-dasharray:none"
       d="m 168.41045,95.596132 a 63.756853,63.756853 0 0 1 -63.75685,63.756858 63.756853,63.756853 0 0 1 -63.756856,-63.756858 63.756853,63.756853 0 0 1 63.756856,-63.756853 63.756853,63.756853 0 0 1 63.75685,63.756853 z" />
    <g
       id="g18"
       transform="matrix(0.97253611,0,0,0.97253611,1.1165063,0.86775237)"
       style="stroke:#000000;stroke-opacity:1;stroke-width:0.41129578;stroke-dasharray:none">
      <path
         id="path18"
         clip-path="none"
         mask="none"
         style="fill:#ff0000;fill-opacity:1;stroke:#000000;stroke-width:0.41130065;stroke-linecap:square;stroke-opacity:1;paint-order:markers fill stroke;stroke-dasharray:none"
         d="m 44.209188,117.95713 c 2.287336,7.23295 5.915651,13.90682 10.547802,19.77783 v -19.77783 z m 22.84022,0 v 31.77053 c 2.757431,2.07422 5.673137,3.93805 8.714817,5.56665 v -37.33718 z m 21.006718,0 v 42.40566 c 3.279501,0.97581 6.640544,1.69085 10.050669,2.12186 v -44.52752 z m 22.343084,0 v 44.94714 c 3.72976,-0.1824 7.43555,-0.72784 11.06923,-1.60096 v -43.34618 z m 23.36113,0 v 39.03322 c 3.7483,-1.74916 7.33943,-3.84624 10.70748,-6.24414 v -32.78908 z m 22.9999,0 v 21.51367 c 5.35936,-6.33343 9.43734,-13.63697 11.6878,-21.51367 z"
         transform="matrix(0.99998816,0,0,0.99998816,5.2322744e-4,0.00192868)" />
    </g>
    <path
       id="circle2"
       style="fill:#0000ff;fill-opacity:1;stroke:#000000;stroke-width:0.486267;stroke-linecap:square;stroke-opacity:1;paint-order:markers fill stroke"
       d="m 104.65337,31.839252 a 63.756853,63.756853 0 0 0 -60.541832,43.767485 h 121.084162 a 63.756853,63.756853 0 0 0 -60.54233,-43.767485 z" />
    <path
       style="font-weight:bold;font-size:96px;line-height:1.25;font-family:Sans;-inkscape-font-specification:'Sans Bold';text-align:center;text-anchor:middle;white-space:pre;stroke-width:0.422897"
       d="m 80.721042,81.122905 -9.865346,28.987065 h -6.698692 l -9.824748,-28.987065 h 6.211514 l 5.44015,17.254206 q 0.162393,0.446579 0.446579,1.664519 0.324785,1.17735 0.649571,2.51709 0.324785,1.29914 0.446579,2.1923 0.121794,-0.89316 0.405981,-2.1923 0.324785,-1.33974 0.64957,-2.51709 0.324785,-1.21794 0.44658,-1.664519 l 5.480748,-17.254206 z m 29.433618,14.452935 q 0,4.50639 -1.50213,7.87604 -1.46153,3.32904 -4.50639,5.19656 -3.04486,1.86751 -7.794843,1.86751 -4.709383,0 -7.794841,-1.86751 -3.04486,-1.86752 -4.546991,-5.23716 -1.461533,-3.36965 -1.461533,-7.876039 0,-4.465794 1.461533,-7.794841 1.502131,-3.369645 4.546991,-5.196561 3.085458,-1.867514 7.835439,-1.867514 4.709385,0 7.754245,1.867514 3.08546,1.826916 4.54699,5.196561 1.46153,3.329047 1.46153,7.83544 z m -21.070429,0 q 0,4.54699 1.705122,7.14527 1.74572,2.55768 5.561944,2.55768 3.897423,0 5.561943,-2.55768 1.70512,-2.59828 1.70512,-7.14527 0,-4.546991 -1.70512,-7.145272 -1.66452,-2.59828 -5.521345,-2.59828 -3.856822,0 -5.602542,2.59828 -1.705122,2.598281 -1.705122,7.145272 z m 36.944289,14.53413 h -6.21152 v -23.831103 h -7.83544 v -5.155962 h 21.8824 v 5.155962 h -7.83544 z m 28.94645,0 h -16.68583 v -28.987065 h 16.68583 v 5.034168 h -10.55551 v 6.373907 h 9.82475 v 5.034168 h -9.82475 v 7.470052 h 10.55551 z"
       id="text9"
       aria-label="VOTE" />
    <g
       id="g15"
       transform="matrix(0.97253611,0,0,0.97253611,-2.4454941,0.86775237)"
       style="fill:#ffffff;fill-opacity:1">
      <path
         style="fill:#ffffff;fill-opacity:1;stroke:#000000;stroke-width:1.25542086;stroke-linecap:square;stroke-opacity:1;paint-order:markers fill stroke;stroke-dasharray:none"
         id="path10"
         d="m 28.474605,59.009206 1.111183,13.143151 -9.023737,-9.620255 -12.1565047,5.118255 6.3609177,-11.554906 -8.6243167,-9.979895 12.9550007,2.478929 6.826384,-11.286169 1.645713,13.086969 12.843254,3.004659 z"
         transform="matrix(0.20475991,0.35465457,-0.35465457,0.20475991,77.392273,49.407458)" />
      <path
         style="fill:#ffffff;fill-opacity:1;stroke:#000000;stroke-width:1.25542086;stroke-linecap:square;stroke-opacity:1;paint-order:markers fill stroke;stroke-dasharray:none"
         id="path11"
         d="m 28.474605,59.009206 1.111183,13.143151 -9.023737,-9.620255 -12.1565047,5.118255 6.3609177,-11.554906 -8.6243167,-9.979895 12.9550007,2.478929 6.826384,-11.286169 1.645713,13.086969 12.843254,3.004659 z"
         transform="matrix(0.20475991,0.35465457,-0.35465457,0.20475991,96.472515,49.407458)" />
      <path
         style="fill:#ffffff;fill-opacity:1;stroke:#000000;stroke-width:1.25542086;stroke-linecap:square;stroke-opacity:1;paint-order:markers fill stroke;stroke-dasharray:none"
         id="path12"
         d="m 28.474605,59.009206 1.111183,13.143151 -9.023737,-9.620255 -12.1565047,5.118255 6.3609177,-11.554906 -8.6243167,-9.979895 12.9550007,2.478929 6.826384,-11.286169 1.645713,13.086969 12.843254,3.004659 z"
         transform="matrix(0.20475991,0.35465457,-0.35465457,0.20475991,116.83331,49.407458)" />
      <path
         style="fill:#ffffff;fill-opacity:1;stroke:#000000;stroke-width:1.25542086;stroke-linecap:square;stroke-opacity:1;paint-order:markers fill stroke;stroke-dasharray:none"
         id="path13"
         d="m 28.474605,59.009206 1.111183,13.143151 -9.023737,-9.620255 -12.1565047,5.118255 6.3609177,-11.554906 -8.6243167,-9.979895 12.9550007,2.478929 6.826384,-11.286169 1.645713,13.086969 12.843254,3.004659 z"
         transform="matrix(0.20475991,0.35465457,-0.35465457,0.20475991,136.68189,49.407458)" />
      <path
         style="fill:#ffffff;fill-opacity:1;stroke:#000000;stroke-width:1.25542086;stroke-linecap:square;stroke-opacity:1;paint-order:markers fill stroke;stroke-dasharray:none"
         id="path14"
         d="m 28.474605,59.009206 1.111183,13.143151 -9.023737,-9.620255 -12.1565047,5.118255 6.3609177,-11.554906 -8.6243167,-9.979895 12.9550007,2.478929 6.826384,-11.286169 1.645713,13.086969 12.843254,3.004659 z"
         transform="matrix(0.20475991,0.35465457,-0.35465457,0.20475991,154.9938,49.407458)" />
      <path
         style="fill:#ffffff;fill-opacity:1;stroke:#000000;stroke-width:1.25542086;stroke-linecap:square;stroke-opacity:1;paint-order:markers fill stroke;stroke-dasharray:none"
         id="path15"
         d="m 28.474605,59.009206 1.111183,13.143151 -9.023737,-9.620255 -12.1565047,5.118255 6.3609177,-11.554906 -8.6243167,-9.979895 12.9550007,2.478929 6.826384,-11.286169 1.645713,13.086969 12.843254,3.004659 z"
         transform="matrix(0.20475991,0.35465457,-0.35465457,0.20475991,173.0496,49.407458)" />
    </g>
  </g>
</svg>
